<?xml version="1.0" encoding="UTF-8"?>
<!DOCTYPE svg PUBLIC "-//W3C//DTD SVG 1.1//EN" "http://www.w3.org/Graphics/SVG/1.1/DTD/svg11.dtd">
<!-- Creator: CorelDRAW 2026 -->
<svg xmlns="http://www.w3.org/2000/svg" xml:space="preserve" width="44.0395mm" height="52.2349mm" version="1.1" style="shape-rendering:geometricPrecision; text-rendering:geometricPrecision; image-rendering:optimizeQuality; fill-rule:evenodd; clip-rule:evenodd"
viewBox="0 0 1790.11 2123.24"
 xmlns:xlink="http://www.w3.org/1999/xlink"
 xmlns:xodm="http://www.corel.com/coreldraw/odm/2003">
 <defs>
  <style type="text/css">
   <![CDATA[
    .str0 {stroke:#2B2A29;stroke-width:203.24;stroke-miterlimit:22.9256}
    .str1 {stroke:#E31E24;stroke-width:203.24;stroke-miterlimit:22.9256}
    .fil0 {fill:none}
    .fil1 {fill:#FEFEFE}
   ]]>
  </style>
 </defs>
 <g id="Слой_x0020_1">
  <metadata id="CorelCorpID_0Corel-Layer"/>
  <circle class="fil0 str0" cx="921.26" cy="1512.88" r="508.73"/>
  <path class="fil1 str1" d="M647.58 1402.14l-90.24 -189.67 -90.24 -189.67 -90.24 -189.67 -90.24 -189.67 -90.24 -189.67 -90.24 -189.67c-21.93,-84.58 36.5,-168.21 133.45,-162.2l223.69 27.47 223.69 27.47 223.69 27.47 223.69 27.47 223.69 27.47c74.56,9.15 149.12,18.31 223.69,27.47 86.72,15.33 134.03,117.45 90.24,189.67l-133.45 162.21 -133.45 162.21 -133.44 162.2 -133.45 162.21 -133.44 162.21c-44.48,54.07 -88.97,108.14 -133.45,162.21 -61.54,76.19 -168.9,74.64 -223.69,-27.47z"/>
 </g>
</svg>
